<svg version="1.2" xmlns="http://www.w3.org/2000/svg" viewBox="0 0 750 954" width="750" height="954">
	<title>gearbox logo no text black</title>
	<style>
		.s0 { fill: #000000 } 
		.s1 { fill: #f17300 } 
		.s2 { fill: #e03597 } 
	</style>
	<g id="Background">
		<path id="Path 0" fill-rule="evenodd" class="s0" d="m171 264.8c0.3 0.4 2.4 3.4 4.5 6.6 2.2 3.3 6.9 8.6 10.5 11.8 3.9 3.6 9.7 7.5 14.5 9.9 4.4 2.1 10.7 4.5 14 5.3 3.3 0.8 8.1 1.7 15.5 2.6l-21.8 21.7c-11.9 12-26.7 27.8-32.7 35.1-6.1 7.3-14.8 18.6-19.4 25-4.6 6.4-11.7 17.3-15.8 24.2-4.1 6.9-10.3 18.4-13.8 25.5-3.5 7.1-8.5 18.4-11 25-2.6 6.6-6.1 17.2-8 23.5-1.8 6.3-4.2 16-5.3 21.5-1.2 5.5-2.9 15.2-3.9 21.5-1.4 9-1.8 17.7-1.8 39.5 0 22.1 0.4 30.4 1.8 39.5 1 6.3 2.9 16.7 4.3 23 1.4 6.3 4.7 18 7.4 26 2.7 8 7.3 19.9 10.2 26.5 3 6.6 7.8 16.3 10.8 21.5 2.9 5.2 8.3 14 12 19.5 3.7 5.5 10.5 14.7 15 20.5 4.6 5.8 13.6 15.7 19.9 22 6.4 6.4 16.1 15.2 21.6 19.6 5.5 4.4 15.2 11.4 21.5 15.6 6.3 4.2 16.7 10.3 23 13.6 6.3 3.4 15.3 7.7 20 9.7 4.7 2 11.6 4.8 15.5 6.2 3.9 1.4 11.3 3.8 16.5 5.4 5.2 1.6 14.9 4 21.5 5.4 6.6 1.3 17.9 3.1 25 4 7.4 0.8 21.4 1.5 32.5 1.5 11.1 0 25.1-0.7 32.5-1.5 7.1-0.9 17.5-2.5 23-3.6 5.5-1.1 15.6-3.6 22.5-5.5 6.9-2 17.7-5.6 24-8.1 6.3-2.5 17.1-7.4 24-10.9 6.9-3.4 17-9.1 22.5-12.6 5.5-3.5 14.5-9.8 20-13.9 5.5-4.2 14.7-11.9 20.5-17.1 5.8-5.2 14.5-14.1 19.5-19.7 5-5.7 12.6-15.2 17-21.1 4.4-6 11.3-16.4 15.2-23.2 4-6.8 9.9-18.2 13.2-25.3 3.3-7.1 8.2-19.8 10.9-28 2.8-8.3 6.2-20.2 7.6-26.5 1.4-6.3 3.2-16.2 4.1-22 0.9-5.8 1.9-20 2.2-31.5 0.4-13 0.1-26.1-0.6-34.5-0.7-7.4-2.1-18.7-3.2-25-1.1-6.3-3.3-16.4-4.9-22.5-1.6-6.1-4.5-15.9-6.5-22-2.1-6.1-6.6-17.5-10.1-25.5-3.5-8-9.6-20.1-13.5-27-3.9-6.9-10.8-18.1-15.4-25-4.6-6.9-12.6-17.7-17.7-24.1-5.1-6.4-13.8-16.7-19.3-22.9-5.5-6.2-17.4-18.4-43-42.9l5-0.6c2.8-0.3 7.9-1.3 11.5-2.2 3.6-0.9 9.9-3.3 14-5.4 4.6-2.3 10.3-6.3 14.9-10.6 4-3.7 8.9-9.4 14.1-18.3l6.3 4.2c3.4 2.3 10.7 7.6 16.2 11.7 5.5 4.2 14.5 11.4 20 16.2 5.5 4.7 15.9 14.7 23 22.1 7.1 7.3 16.4 17.6 20.7 22.8 4.2 5.2 11.2 14.6 15.7 20.7 4.5 6.2 8.1 11.6 8.1 12 0 0.5-2.8 2.6-6.1 4.8-3.3 2.2-8.4 6.5-11.2 9.5-2.9 3-6.9 8.2-8.9 11.5-2 3.3-4.9 9.6-6.5 14-2.5 7.2-2.8 9.3-2.8 21.5 0 12.2 0.3 14.3 2.8 21.5 1.6 4.4 4.8 11.1 7.1 15 2.5 3.9 7.6 10 11.7 13.8 4.9 4.6 10.1 8.2 15.4 10.8 4.4 2.1 10.9 4.6 14.5 5.6 3.8 0.9 10.5 1.6 16 1.6 5.2 0 12-0.5 15-1.2 3-0.7 5.6-1.1 5.7-0.9 0.2 0.2 1.2 5.2 2.3 11.3 1.1 6 2.9 18.5 4 27.7 1.4 11.8 2 23.1 2 38 0 14.6-0.6 26.7-2 38.3-1.1 9.4-2.9 22-4 28-1.1 6-2.1 11.1-2.3 11.3-0.1 0.2-2.7-0.2-5.7-0.9-3-0.7-9.8-1.2-15-1.2-5.5 0-12.3 0.8-16 1.7-3.6 1-10.1 3.5-14.5 5.6-5 2.4-10.6 6.3-14.9 10.2-3.8 3.5-8.9 9.4-11.4 13.3-2.6 3.9-6 10.8-7.6 15.5-2.2 6.4-3 11-3.4 18.5-0.4 7.4 0 12.1 1.3 18 1 4.6 3.7 11.8 6.4 17 2.8 5.5 6.7 11.3 10.2 15 3.1 3.3 8.3 7.8 11.5 10 3.2 2.2 6.1 4.1 6.4 4.2 0.3 0.2-2.2 4.3-5.5 9.1-3.3 4.8-10.5 14.3-15.9 21.2-5.5 6.9-16.5 19.2-24.5 27.4-8.1 8.2-20 19.4-26.7 25-6.6 5.5-17.2 13.7-23.5 18.2-6.3 4.4-12 8.4-12.6 8.7-0.8 0.5-2.2-0.8-3.7-3.6-1.3-2.3-4.8-6.8-7.7-10.1-3-3.2-8.5-8-12.4-10.5-3.9-2.6-9.7-5.8-13-7-3.3-1.3-9.6-3-14-3.8-5.4-1-10.6-1.2-16-0.8-4.4 0.4-10.9 1.6-14.5 2.7-3.6 1.1-9.6 3.6-13.4 5.6-3.8 2.1-9.8 6.4-13.4 9.7-3.5 3.3-8.5 9.1-11 13-2.6 3.9-6 10.8-7.5 15.5-2.2 6.4-3.1 11-3.4 18.5-0.3 6.2 0 12.6 0.9 16.9 0.8 4.4 0.9 6.9 0.3 7.2-0.6 0.2-6.2 1.3-12.5 2.4-6.3 1.1-20.1 2.9-30.5 4-10.4 1.1-25.3 2-33 2-7.7 0-20.7-0.7-29-1.5-8.2-0.8-18.6-2-23-2.6-4.4-0.6-11.6-1.7-16-2.5-4.4-0.8-8.4-1.6-9-1.8-0.7-0.3-0.6-2.6 0.2-6.7 0.7-3.5 1.3-9.8 1.3-13.9 0-4.1-0.7-10.6-1.5-14.5-0.8-3.9-3.6-11.3-6.1-16.5-3.9-7.7-6.3-11-12.8-17.6-6.4-6.3-9.9-9-16.6-12.2-4.7-2.3-11.4-5-15-5.9-4-1-10.3-1.7-16.5-1.7-6.1 0-12.5 0.7-16.5 1.7-3.6 0.9-10.3 3.6-14.9 5.9-5.1 2.6-11 6.7-14.9 10.3-3.5 3.3-8.2 8.7-10.4 12-2.2 3.3-4.5 5.8-5.2 5.7-0.6-0.2-6.2-4.1-12.5-8.5-6.3-4.5-16.9-12.8-23.5-18.3-6.7-5.6-18.6-16.8-26.6-25-8-8.2-18.2-19.4-22.6-24.9-4.4-5.5-10.2-13.1-13-17-2.8-3.9-6.4-8.9-8-11.3-1.6-2.3-2.7-4.4-2.4-4.5 0.3-0.2 2.5-1.6 5-3.2 2.5-1.6 6.9-5.1 9.9-7.9 3-2.8 7.5-8.2 10-12.1 2.6-3.9 5.9-10.8 7.5-15.5 2.1-6.3 3-11.1 3.4-18.5 0.3-7.5 0-12-1.3-18-1-4.5-3.8-11.9-6.3-17-3.5-6.9-6.3-10.7-12.1-16.5-4.2-4.1-10.3-9.1-13.6-11-3.3-1.9-8.8-4.5-12.2-5.7-3.5-1.3-10-2.8-14.5-3.3-5.3-0.6-10.9-0.7-15.3-0.1-3.8 0.5-8.5 1.2-10.2 1.5-3.3 0.6-3.3 0.6-4.3-4.7-0.5-2.8-1.4-7.9-2-11.2-0.6-3.3-1.9-13.5-3-22.8-1.4-11.7-2-23-2-38 0-14.5 0.6-26.6 2-38.2 1.1-9.4 2.9-22 4-28 1.1-6.1 2.1-11.1 2.3-11.3 0.1-0.2 2.7 0.2 5.7 0.9 3 0.7 9.8 1.2 15 1.2 5.5 0 12.2-0.7 16-1.6 3.6-1 10.3-3.6 15-5.9 6.8-3.3 10.2-5.8 17-12.7 6.3-6.4 9.5-10.5 12.3-16.1 2-4.1 4.6-11.1 5.7-15.5 1.2-4.9 2-11.3 2-16.5 0-5.3-0.7-11.5-2-16.5-1.2-4.4-3.9-11.4-6-15.5-2.1-4.1-6.6-10.4-9.9-14-3.2-3.6-8.6-8.3-12-10.5-3.3-2.2-6.1-4.2-6.1-4.5 0-0.3 3.6-5.7 8.1-12 4.5-6.3 12-16.2 16.7-22 4.7-5.8 16-17.9 25.1-27 9.1-9.1 22-20.9 28.6-26.2 6.6-5.3 16.3-12.5 21.5-16.1 5.2-3.6 9.7-6.2 10-5.9zm-53.2 448.7c3.1 5.5 8 13.8 11 18.5 3 4.7 8.2 12.1 11.5 16.5 3.3 4.4 9.7 12.3 14.3 17.5 4.5 5.2 11.7 12.9 16 17 4.4 4.2 12 10.9 16.9 15 5 4.2 13.5 10.7 19 14.5 5.5 3.8 15.4 10.1 22 14 6.6 3.9 17.9 9.7 25 12.9 7.1 3.2 20.2 8.2 29 11.2 8.8 2.9 21.2 6.4 27.5 7.8 6.3 1.4 16 3.2 21.5 4 5.5 0.9 17.4 2 26.5 2.6 12 0.8 21.1 0.8 33.5 0 9.4-0.6 21.4-1.7 26.8-2.5 5.3-0.8 14.1-2.4 19.5-3.6 5.3-1.2 14.9-3.6 21.2-5.4 6.3-1.9 17.8-5.9 25.5-9 7.7-3.1 19-8.2 25-11.4 6-3.2 15.3-8.4 20.5-11.7 5.2-3.2 14-9.2 19.5-13.3 5.5-4.1 14.5-11.3 19.9-16 5.4-4.7 13.7-12.6 18.4-17.6 4.6-5 11.7-13 15.7-18 4-5 10.6-14 14.7-20 4.1-6 10-15.5 13-21 3.1-5.5 6.4-11.7 7.2-13.7 0.9-2.1 1.4-3.8 1.1-3.8-0.3 0-2.4 3.3-4.6 7.3-2.3 3.9-7.6 12.2-11.7 18.2-4.1 6-10.4 14.6-14 19-3.6 4.4-10.2 12-14.6 16.9-4.5 4.8-12.8 12.9-18.4 18-5.7 5-14.7 12.4-20 16.5-5.4 4-14 10.1-19.2 13.6-5.2 3.4-14.5 8.9-20.5 12.3-6 3.3-16.2 8.4-22.5 11.2-6.3 2.8-17.4 7.1-24.5 9.6-7.1 2.5-18.2 5.8-24.5 7.4-6.3 1.6-16.7 3.8-23 4.9-6.3 1.1-17.4 2.5-24.5 3.2-8.1 0.7-19.8 1-31 0.6-9.9-0.3-24.1-1.5-31.5-2.6-7.4-1.2-18.9-3.4-25.5-5-6.6-1.6-17.4-4.7-24-6.9-6.6-2.2-16.9-6.1-23-8.7-6-2.6-14.4-6.4-18.5-8.5-4.1-2.1-11.5-6.1-16.5-9-4.9-2.9-13.5-8.4-19-12.1-5.5-3.7-14.7-10.6-20.5-15.2-5.8-4.6-15-12.7-20.4-17.8-5.5-5.2-14.2-14.4-19.4-20.4-5.2-6-12.7-15.5-16.7-21-4-5.5-11-16.1-15.5-23.5-4.4-7.4-8.3-13.7-8.6-14-0.3-0.3 0.7 2.2 2.2 5.5 1.5 3.3 5.2 10.5 8.2 16z"/>
		<path id="Path 1" class="s1" d="m268.4 191.3c0.6 0.2 1.1 0.8 1.1 1.3 0 0.5-0.7 5-1.4 9.9-0.9 6-1.2 13.7-0.8 23 0.2 7.7 1.3 17.6 2.2 22 0.9 4.4 2.8 11.8 4.2 16.5 1.3 4.7 4 12.5 6 17.5 1.9 4.9 6.2 14.4 9.4 21 3.2 6.6 9 17.6 13 24.5 3.9 6.9 16.7 27.8 28.4 46.5 11.7 18.7 24.2 39.2 27.7 45.5 3.6 6.3 9 16.4 12 22.5 3.1 6 7.7 16.4 10.3 23 2.6 6.6 6 17.2 7.6 23.5 1.7 6.3 3.5 16.9 4.1 23.5 0.9 9.1 0.9 14.8 0 23.5-0.7 6.3-2.3 15.8-3.7 21-1.6 5.9-5.1 14.8-9.5 23.5-4.5 9.2-9.8 17.8-15.2 25-4.6 6-13.7 16.4-20.3 23.1-6.6 6.6-19.9 19.1-29.5 27.6-9.6 8.5-21.8 20-27.1 25.4-5.2 5.4-11.9 13.3-14.8 17.4-2.9 4.1-7 11-9.2 15.2-2.1 4.3-5 11.5-6.3 16-1.3 4.6-2.9 12.8-3.5 18.3-0.7 6.7-0.7 13.7-0.1 21 0.5 6 0.6 11.3 0.2 11.7-0.4 0.5-4.7-1.7-9.7-4.8-4.9-3.1-13.3-8.8-18.5-12.8-5.2-3.9-14.6-12.1-20.9-18.1-6.2-6-15-15.3-19.3-20.5-4.4-5.2-11.6-14.9-16-21.5-4.4-6.6-11.3-18.8-15.3-27-4.1-8.3-9-19.5-11-25-2.1-5.5-5.2-15.9-7-23-1.8-7.1-4.2-18.2-5.2-24.5-1.5-9.4-1.8-17-1.7-41 0-25.1 0.3-31.6 2.2-43.5 1.2-7.7 3.5-19.4 5.1-26 1.6-6.6 4.4-16.1 6.1-21 1.8-4.9 5.2-13.5 7.7-19 2.4-5.5 6.9-14.5 9.9-20 3.1-5.5 10.1-17.3 15.7-26.3 5.6-8.9 10.7-16.1 11.2-15.8 0.6 0.2 0.9 0.7 0.8 1.2-0.1 0.5-2.3 6.8-4.8 13.9-2.5 7.1-5.6 17.9-7.1 24-1.8 7.8-2.7 15.1-3.1 25-0.3 8-0.1 16.4 0.5 19.5 0.6 3 2.1 8.2 3.3 11.5 1.3 3.3 4 8.1 6.1 10.7 2.7 3.4 5.8 5.8 10.5 8 6 2.9 7.6 3.3 14.8 3.2 5.4-0.1 9.9-0.9 14-2.3 3.3-1.2 8.7-3.9 12-5.9 3.3-2 9-6.6 12.6-10.2 3.7-3.6 9.3-10.6 12.5-15.5 3.2-4.9 7.4-12.8 9.2-17.5 1.9-4.7 4.5-12.6 5.7-17.5 1.3-4.9 2.9-14.4 3.5-21 0.7-6.9 0.9-16.2 0.5-22-0.3-5.5-1.3-14.5-2.1-20-0.8-5.5-2.9-15.6-4.8-22.5-1.8-6.9-5.9-20.8-9-31-3.1-10.2-6.8-23.7-8.2-30-1.9-8.9-2.6-15.4-3.1-29-0.4-13.4-0.2-19.6 1-26.5 0.9-4.9 3-13.3 4.7-18.5 1.7-5.2 5-13.5 7.2-18.3 2.3-4.8 4.6-8.6 5.2-8.4z"/>
		<path id="Path 2" class="s0" d="m468.7 72.5c0.2 0.3-0.6 1.7-1.6 3.3-1.1 1.5-4 7-6.4 12.2-2.5 5.2-5.5 13.1-6.5 17.5-1.1 4.4-2.3 11.2-2.7 15-0.3 3.8-0.2 10.8 0.4 15.5 0.6 4.7 2.4 12.8 4.1 18 1.7 5.2 5.6 14.7 8.8 21 3.2 6.3 10.6 19.6 16.5 29.5 5.8 9.9 12.8 22.7 15.6 28.5 2.7 5.8 5.9 13.2 6.9 16.5 1.1 3.3 2.7 9.5 3.6 13.8 0.9 4.2 1.6 12 1.6 17.2 0 5.2-0.3 9.5-0.7 9.5-0.5 0-15.7-14.7-33.9-32.7-21-20.7-35.8-36.3-40.4-42.3-4-5.2-9-12.4-11.1-16-2.1-3.6-5-9.9-6.5-14-1.8-5.2-2.8-10.4-3.1-17-0.5-7.7-0.1-11.1 1.6-18 1.2-4.7 3.9-12.1 6-16.5 2.2-4.4 6.1-11.4 8.8-15.5 2.7-4.1 8.5-12 12.9-17.5 4.4-5.5 12-14.2 16.9-19.3 4.8-5.1 9-9 9.2-8.7z"/>
		<path id="Path 3" class="s2" d="m385.6 4c0.8 0 1.4 0.5 1.4 1 0 0.5-1.9 4.7-4.1 9.3-2.3 4.5-6.5 14-9.4 21.2-2.9 7.2-6.6 18-8.3 24-1.7 6-3.9 15-4.9 20-1.3 6.7-1.7 14-1.8 28.5 0 15 0.4 21.6 1.9 28.5 1 4.9 3.4 13.9 5.4 20 1.9 6.1 6.5 16.8 10.1 24 3.7 7.2 10.1 18.2 14.3 24.5 4.2 6.3 11.5 16.2 16.1 22 4.7 5.8 12.6 15.2 17.7 21 5.1 5.8 12.2 13.6 15.9 17.4 3.6 3.8 18.7 18.5 33.5 32.5 14.8 14.1 33.2 32.4 40.9 40.6 7.7 8.3 17.6 19.3 21.9 24.5 4.4 5.2 11.9 14.7 16.7 21 4.8 6.3 11.9 16.2 15.8 22 3.8 5.8 9.3 14.6 12.3 19.5 2.9 4.9 7.9 14.3 11.1 20.8 3.3 6.4 7.6 15.9 9.8 20.9 2.1 5.1 5.5 14.5 7.5 20.8 2.1 6.3 4.8 16 6.2 21.5 1.3 5.5 3.2 15 4.1 21 1.3 8.3 1.8 17.1 1.8 36 0 19.3-0.4 27.6-1.9 36.5-1 6.3-3.3 17.4-5.1 24.5-1.8 7.1-5 17.7-7.1 23.5-2.1 5.8-7.1 17-11 25-4 8-10.7 19.7-14.9 26-4.2 6.3-11.4 16-16 21.5-4.5 5.5-12.5 14.1-17.6 19.1-5.2 4.9-12.8 11.7-16.9 15-4.1 3.3-11.1 8.6-15.5 11.6-4.4 3.1-13 8.4-19 11.9-6.1 3.4-15.3 8.2-20.5 10.5-5.2 2.3-14.2 5.8-20 7.8-5.8 2.1-14.8 4.8-20 6.1-5.2 1.3-14.9 3.4-21.5 4.6-8.8 1.5-17.8 2.3-33.5 2.6-16.5 0.4-24.6 0.1-35-1.1-7.4-0.9-18.5-2.8-24.5-4.2-6.1-1.3-13.7-3.3-23-6.2l-1.9-6.3c-1.5-5-1.9-9.7-2-21.9-0.1-13.4 0.2-16.6 2.2-23.5 1.3-4.4 3.9-11.4 5.8-15.5 1.9-4.1 6.4-11.8 9.9-17 3.5-5.2 9.3-13.1 13-17.5 3.6-4.4 15.5-17.5 26.4-29 10.9-11.5 22.6-24.1 26-28 3.5-3.9 9.5-11.3 13.5-16.5 4-5.2 9.7-13.8 12.8-19 3.1-5.2 7.2-13.3 9.1-18 2-4.7 4.7-12.5 6.2-17.5 1.4-5 3.5-14.1 4.6-20.3 1.3-7.6 1.9-15.8 1.9-25.7 0-8.1-0.7-19.5-1.6-25.8-0.9-6.1-3.2-16.8-5.1-23.7-1.8-6.9-5.4-17.7-7.9-24-2.5-6.3-8.1-18.5-12.3-27-4.3-8.5-11.9-22.5-17.1-31-5.1-8.5-15.5-24.7-23.1-36-7.5-11.3-19.2-28.4-25.9-38-6.7-9.6-14.6-22.2-17.5-28-2.9-5.8-6.6-14.6-8.3-19.5-1.7-4.9-4-13.3-5.1-18.5-1.1-5.2-2.5-13.6-3.1-18.5-0.5-4.9-1-14.8-1-22 0-7.2 0.7-18.6 1.5-25.5 0.8-6.9 2.6-18.1 4.1-25 1.4-6.9 4.1-17.7 6-24 1.8-6.3 5.3-16.7 7.7-23 2.4-6.3 5.9-14.9 7.7-19 1.8-4.1 5.5-12 8.2-17.5 2.8-5.5 9.1-16.9 14.1-25.4 5.1-8.4 13-20.4 17.6-26.5 4.6-6.1 10.8-13.9 13.8-17.4 3.1-3.4 6.2-6.2 6.9-6.2z"/>
	</g>
</svg>