<svg version="1.2" xmlns="http://www.w3.org/2000/svg" viewBox="0 0 494 809" width="494" height="809">
	<title>gearbox fire</title>
	<style>
		.s0 { fill: #e03597 } 
		.s1 { fill: #f17300 } 
	</style>
	<g id="Background">
		<path id="Path 0" class="s0" d="m257.6 0c0.8 0 1.4 0.6 1.4 1.3 0 0.6-2.9 7.6-6.5 15.4-3.6 7.9-8.5 20-10.9 27.1-2.4 7-5.6 17.9-7.2 24.2-2.7 11.1-2.8 12.4-2.8 60.5l3.2 12c1.8 6.6 4.5 14.9 5.9 18.5 1.4 3.6 4.4 10.3 6.7 15 2.3 4.7 6.6 12.6 9.6 17.5 2.9 4.9 9.2 14.2 13.8 20.5 4.7 6.3 13.2 17.1 19 24 5.8 6.9 30.9 32.8 55.8 57.5 24.9 24.8 49.7 49.9 55 56 5.3 6.1 14.1 16.6 19.4 23.5 5.3 6.9 12.1 15.9 15 20 3 4.1 8.9 13.1 13.3 20 4.3 6.9 12 21.1 17.2 31.5 5.1 10.4 11.1 24.2 13.3 30.5 2.2 6.3 5.3 16.4 7 22.5 1.7 6.1 4.2 16.4 5.4 23 2 10.8 2.3 15 2.3 42.5-0.1 30.4-0.1 30.5-3.2 45.5-1.8 8.2-4.8 20.4-6.8 27-2 6.6-5.9 17.2-8.7 23.5-2.7 6.3-7.3 15.8-10.1 21-2.8 5.2-8.1 14-11.8 19.5-3.7 5.5-9.8 13.8-13.6 18.5-3.7 4.6-10.9 12.5-15.8 17.5-5 5-13.3 12.6-18.5 17-5.2 4.3-14.5 11.1-20.5 15.1-6.1 3.9-15.5 9.7-21 12.7-5.5 3-15 7.5-21 10-6.1 2.5-16.2 6.1-22.5 8.1-6.3 2-16.7 4.7-23 6-6.3 1.4-16.9 3-23.5 3.7-7.5 0.7-20.6 0.9-35 0.6-16.6-0.4-25.9-1.1-33.5-2.5-5.8-1.1-16-3.5-35.1-8.7l-1.1-4c-0.5-2.2-1.4-6.5-1.9-9.5-0.5-3-0.9-10.7-0.9-17 0-8 0.5-13.8 1.9-19 1-4.1 3.4-11.1 5.2-15.5 1.8-4.4 6.8-13.2 11-19.5 4.2-6.3 10.8-15.1 14.5-19.5 3.8-4.4 13-14.5 20.4-22.4 7.4-8 17.5-18.8 22.3-24 4.9-5.3 12.1-13.6 16.2-18.6 4-5 9.7-12.6 12.6-17 2.9-4.4 7.2-11.6 9.6-16 2.3-4.4 5.8-12.5 7.8-18 2-5.5 4.8-15 6.2-21 1.3-6 2.8-16.2 3.2-22.5 0.4-6.3 0.4-17.6 0-25-0.5-8.4-1.8-18.1-3.4-25.5-1.5-6.6-4.4-17.2-6.5-23.5-2.1-6.3-6.1-16.7-8.9-23-2.9-6.3-8.2-17.1-11.8-24-3.6-6.9-10.5-18.8-15.2-26.5-4.7-7.7-14.9-23.4-22.6-35-7.8-11.6-19.4-28.9-25.9-38.5-6.5-9.6-14-22-16.7-27.5-2.6-5.5-6.1-14.1-7.7-19-1.7-4.9-4-13.9-5.3-20-1.7-8.7-2.3-15.4-2.7-32-0.3-18-0.1-23.2 1.8-36.5 1.2-8.5 3.6-20.9 5.2-27.5 1.6-6.6 4-15.8 5.5-20.5 1.4-4.7 4.9-14.6 7.8-22 2.9-7.4 7.6-18.5 10.4-24.5 2.9-6 8-16 11.3-22 3.4-6 9.5-16.2 13.6-22.5 4.1-6.3 10.4-15.3 14-20 3.7-4.7 8.9-10.9 11.6-13.8 2.7-2.8 5.5-5.2 6.2-5.2z"/>
		<path id="Path 1" class="s1" d="m140.4 187.3c0.6 0.2 1 1.7 0.8 3.3-0.1 1.6-0.5 10.5-0.8 19.9-0.4 11.1-0.2 20.1 0.6 26 0.6 4.9 2.7 14.2 4.5 20.5 1.8 6.3 4.8 15.3 6.6 20 1.8 4.7 6.8 15.5 11 24 4.3 8.5 12.2 22.9 17.6 32 5.5 9.1 18.5 30.2 28.8 47 10.4 16.8 21.9 36.1 25.7 43 3.7 6.9 9.3 18.1 12.4 25 3.1 6.9 7.1 17 8.9 22.5 1.9 5.5 4.4 14.7 5.6 20.5 1.9 8.7 2.3 13.5 2.3 28 0 14-0.4 19.4-2 27-1.2 5.2-4 13.9-6.3 19.2-2.2 5.4-6.4 14-9.3 19-2.9 5.1-8 12.9-11.3 17.3-3.3 4.3-10.9 13.1-17 19.4-6.1 6.3-20.2 19.8-31.5 30.1-11.3 10.3-24.5 22.9-29.4 28.1-4.9 5.2-11.1 12.5-13.8 16.4-2.7 3.9-6.7 10.6-8.8 15-2.2 4.4-5.2 12.5-6.7 18-2.4 9-2.7 11.8-2.8 28.5-0.1 10.2-0.3 18.8-0.4 19.2 0 0.5-2-0.2-4.4-1.3-2.3-1.2-8-4.8-12.7-7.9-4.7-3.1-12.8-9.2-18-13.6-5.2-4.3-14-12.3-19.4-17.9-5.5-5.5-12.5-13.1-15.6-17-3.1-3.9-8.6-11.3-12.2-16.5-3.6-5.2-9-14-12-19.5-3-5.5-7.5-14.5-10-20-2.5-5.5-5.9-13.8-7.6-18.5-1.6-4.7-4.6-14.8-6.5-22.5-1.9-7.7-4.1-17.8-4.9-22.5-0.9-5.9-1.3-18.7-1.2-42 0-30.3 0.2-34.7 2.3-46 1.2-6.9 3.1-16.1 4.1-20.5 1.1-4.4 3-11.6 4.3-16 1.4-4.4 3.8-11.4 5.5-15.5 1.7-4.1 4.8-11.3 6.9-16 2.2-4.7 6.8-13.4 10.3-19.5 3.5-6.1 9.6-16.2 13.6-22.5 3.9-6.3 8.2-12.3 9.3-13.3 1.2-0.9 2.3-1.4 2.5-1 0.3 0.5-0.9 4.6-2.5 9.3-1.7 4.7-4.4 13.2-6.1 19-1.7 5.8-3.7 14.3-4.4 19-0.8 4.7-1.4 14.6-1.4 22 0 9.6 0.5 15.1 1.6 19 0.9 3 2.7 7.6 4 10.2 1.3 2.7 3.7 6.3 5.3 8 1.5 1.8 5.5 4.6 8.7 6.2 3.6 1.8 8.1 3.1 11.4 3.4 3 0.2 8.2-0.1 11.5-0.8 3.3-0.7 8.9-2.7 12.5-4.5 3.6-1.8 9.4-5.7 13-8.7 3.6-3 9.4-9.2 12.9-13.9 3.5-4.6 8.3-12.5 10.7-17.4 2.4-5 5.5-13.1 6.9-18 1.4-5 3.3-13.3 4-18.5 0.8-5.2 1.5-14.9 1.5-21.5 0-6.6-0.7-16.7-1.5-22.5-0.7-5.8-2.1-13.6-2.9-17.5-0.8-3.9-5.3-20.3-10-36.5-4.6-16.2-9.2-32.9-10.1-37-1-4.8-1.8-14.7-2.2-27.5-0.5-16.5-0.3-21.5 1.1-28.5 1-4.7 3.1-12.6 4.7-17.5 1.7-5 4.8-12.7 7.1-17.3 2.2-4.6 4.5-8.1 5.2-7.9z"/>
	</g>
</svg>