<svg width="160" height="160" viewBox="0 0 160 160" fill="none" xmlns="http://www.w3.org/2000/svg">
<g clip-path="url(#clip0_4_10)">
<circle cx="80" cy="80" r="80" fill="white"/>
<path fill-rule="evenodd" clip-rule="evenodd" d="M52.8 42.5905C52.84 42.6435 53.12 43.0414 53.4 43.4658C53.6933 43.9035 54.32 44.6065 54.8 45.0309C55.32 45.5084 56.0933 46.0256 56.7333 46.344C57.32 46.6225 58.16 46.9408 58.6 47.0469C59.04 47.153 59.68 47.2724 60.6667 47.3917L57.76 50.2699C56.1733 51.8614 54.2 53.957 53.4 54.9252C52.5867 55.8934 51.4267 57.3922 50.8133 58.241C50.2 59.0898 49.2533 60.5355 48.7067 61.4507C48.16 62.3658 47.3333 63.8911 46.8667 64.8328C46.4 65.7745 45.7333 67.2732 45.4 68.1486C45.0533 69.024 44.5867 70.4298 44.3333 71.2654C44.0933 72.101 43.7733 73.3875 43.6267 74.117C43.4667 74.8465 43.24 76.133 43.1067 76.9686C42.92 78.1623 42.8667 79.3162 42.8667 82.2075C42.8667 85.1387 42.92 86.2395 43.1067 87.4465C43.24 88.2821 43.4933 89.6614 43.68 90.497C43.8667 91.3326 44.3067 92.8844 44.6667 93.9454C45.0267 95.0065 45.64 96.5848 46.0267 97.4602C46.4267 98.3355 47.0667 99.6221 47.4667 100.312C47.8533 101.001 48.5733 102.169 49.0667 102.898C49.56 103.628 50.4667 104.848 51.0667 105.617C51.68 106.386 52.88 107.699 53.72 108.535C54.5733 109.384 55.8667 110.551 56.6 111.134C57.3333 111.718 58.6267 112.646 59.4667 113.204C60.3067 113.761 61.6933 114.57 62.5333 115.007C63.3733 115.458 64.5733 116.029 65.2 116.294C65.8267 116.559 66.7467 116.93 67.2667 117.116C67.7867 117.302 68.7733 117.62 69.4667 117.832C70.16 118.045 71.4533 118.363 72.3333 118.549C73.2133 118.721 74.72 118.96 75.6667 119.079C76.6533 119.185 78.52 119.278 80 119.278C81.48 119.278 83.3467 119.185 84.3333 119.079C85.28 118.96 86.6667 118.748 87.4 118.602C88.1333 118.456 89.48 118.124 90.4 117.872C91.32 117.607 92.76 117.129 93.6 116.798C94.44 116.466 95.88 115.816 96.8 115.352C97.72 114.901 99.0667 114.145 99.8 113.681C100.533 113.217 101.733 112.381 102.467 111.837C103.2 111.28 104.427 110.259 105.2 109.569C105.973 108.88 107.133 107.699 107.8 106.957C108.467 106.201 109.48 104.941 110.067 104.158C110.653 103.362 111.573 101.983 112.093 101.081C112.627 100.179 113.413 98.6671 113.853 97.7254C114.293 96.7837 114.947 95.0993 115.307 94.0117C115.68 92.9109 116.133 91.3326 116.32 90.497C116.507 89.6614 116.747 88.3484 116.867 87.5791C116.987 86.8099 117.12 84.9265 117.16 83.4012C117.213 81.677 117.173 79.9395 117.08 78.8254C116.987 77.844 116.8 76.3452 116.653 75.5096C116.507 74.6741 116.213 73.3345 116 72.5254C115.787 71.7164 115.4 70.4166 115.133 69.6075C114.853 68.7985 114.253 67.2865 113.787 66.2254C113.32 65.1644 112.507 63.5595 111.987 62.6444C111.467 61.7292 110.547 60.2437 109.933 59.3286C109.32 58.4134 108.253 56.981 107.573 56.1322C106.893 55.2833 105.733 53.9172 105 53.0949C104.267 52.2726 102.68 50.6545 99.2667 47.405L99.9333 47.3254C100.307 47.2856 100.987 47.153 101.467 47.0336C101.947 46.9143 102.787 46.596 103.333 46.3174C103.947 46.0124 104.707 45.4818 105.32 44.9115C105.853 44.4208 106.507 43.6648 107.2 42.4844L108.04 43.0414C108.493 43.3465 109.467 44.0494 110.2 44.5932C110.933 45.1503 112.133 46.1052 112.867 46.7418C113.6 47.3652 114.987 48.6915 115.933 49.673C116.88 50.6412 118.12 52.0073 118.693 52.697C119.253 53.3867 120.187 54.6334 120.787 55.4425C121.387 56.2648 121.867 56.981 121.867 57.0341C121.867 57.1004 121.493 57.3789 121.053 57.6707C120.613 57.9625 119.933 58.5328 119.56 58.9307C119.173 59.3286 118.64 60.0183 118.373 60.456C118.107 60.8936 117.72 61.7292 117.507 62.3128C117.173 63.2677 117.133 63.5463 117.133 65.1644C117.133 66.7825 117.173 67.061 117.507 68.016C117.72 68.5995 118.147 69.4882 118.453 70.0054C118.787 70.5227 119.467 71.3317 120.013 71.8357C120.667 72.4458 121.36 72.9233 122.067 73.2682C122.653 73.5467 123.52 73.8783 124 74.0109C124.507 74.1303 125.4 74.2231 126.133 74.2231C126.827 74.2231 127.733 74.1568 128.133 74.064C128.533 73.9711 128.88 73.9181 128.893 73.9446C128.92 73.9711 129.053 74.6343 129.2 75.4433C129.347 76.2391 129.587 77.897 129.733 79.1172C129.92 80.6823 130 82.181 130 84.1572C130 86.0936 129.92 87.6985 129.733 89.237C129.587 90.4837 129.347 92.1549 129.2 92.9507C129.053 93.7465 128.92 94.4229 128.893 94.4494C128.88 94.476 128.533 94.4229 128.133 94.3301C127.733 94.2372 126.827 94.1709 126.133 94.1709C125.4 94.1709 124.493 94.277 124 94.3964C123.52 94.529 122.653 94.8606 122.067 95.1391C121.4 95.4574 120.653 95.9747 120.08 96.492C119.573 96.9562 118.893 97.7387 118.56 98.256C118.213 98.7732 117.76 99.6884 117.547 100.312C117.253 101.161 117.147 101.771 117.093 102.765C117.04 103.747 117.093 104.37 117.267 105.153C117.4 105.763 117.76 106.718 118.12 107.408C118.493 108.137 119.013 108.906 119.48 109.397C119.893 109.835 120.587 110.432 121.013 110.723C121.44 111.015 121.827 111.267 121.867 111.28C121.907 111.307 121.573 111.851 121.133 112.487C120.693 113.124 119.733 114.384 119.013 115.299C118.28 116.214 116.813 117.846 115.747 118.933C114.667 120.021 113.08 121.506 112.187 122.249C111.307 122.978 109.893 124.066 109.053 124.663C108.213 125.246 107.453 125.777 107.373 125.817C107.267 125.883 107.08 125.711 106.88 125.339C106.707 125.034 106.24 124.437 105.853 124C105.453 123.575 104.72 122.939 104.2 122.607C103.68 122.262 102.907 121.838 102.467 121.679C102.027 121.506 101.187 121.281 100.6 121.175C99.88 121.042 99.1867 121.016 98.4667 121.069C97.88 121.122 97.0133 121.281 96.5333 121.427C96.0533 121.573 95.2533 121.904 94.7467 122.169C94.24 122.448 93.44 123.018 92.96 123.456C92.4933 123.894 91.8267 124.663 91.4933 125.18C91.1467 125.697 90.6933 126.613 90.4933 127.236C90.2 128.085 90.08 128.695 90.04 129.69C90 130.512 90.04 131.361 90.16 131.931C90.2667 132.515 90.28 132.846 90.2 132.886C90.12 132.913 89.3733 133.058 88.5333 133.204C87.6933 133.35 85.8533 133.589 84.4667 133.735C83.08 133.881 81.0933 134 80.0667 134C79.04 134 77.3067 133.907 76.2 133.801C75.1067 133.695 73.72 133.536 73.1333 133.456C72.5467 133.377 71.5867 133.231 71 133.125C70.4133 133.019 69.88 132.913 69.8 132.886C69.7067 132.846 69.72 132.541 69.8267 131.997C69.92 131.533 70 130.698 70 130.154C70 129.61 69.9067 128.748 69.8 128.231C69.6933 127.713 69.32 126.732 68.9867 126.042C68.4667 125.021 68.1467 124.583 67.28 123.708C66.4267 122.872 65.96 122.514 65.0667 122.09C64.44 121.785 63.5467 121.427 63.0667 121.307C62.5333 121.175 61.6933 121.082 60.8667 121.082C60.0533 121.082 59.2 121.175 58.6667 121.307C58.1867 121.427 57.2933 121.785 56.68 122.09C56 122.435 55.2133 122.978 54.6933 123.456C54.2267 123.894 53.6 124.61 53.3067 125.048C53.0133 125.485 52.7067 125.817 52.6133 125.804C52.5333 125.777 51.7867 125.26 50.9467 124.676C50.1067 124.079 48.6933 122.978 47.8133 122.249C46.92 121.506 45.3333 120.021 44.2667 118.933C43.2 117.846 41.84 116.36 41.2533 115.631C40.6667 114.901 39.8933 113.893 39.52 113.376C39.1467 112.859 38.6667 112.196 38.4533 111.877C38.24 111.572 38.0933 111.294 38.1333 111.28C38.1733 111.254 38.4667 111.068 38.8 110.856C39.1333 110.644 39.72 110.18 40.12 109.808C40.52 109.437 41.12 108.721 41.4533 108.203C41.8 107.686 42.24 106.771 42.4533 106.148C42.7333 105.312 42.8533 104.675 42.9067 103.694C42.9467 102.699 42.9067 102.102 42.7333 101.306C42.6 100.71 42.2267 99.7282 41.8933 99.0517C41.4267 98.1366 41.0533 97.6326 40.28 96.8633C39.72 96.3195 38.9067 95.6564 38.4667 95.4044C38.0267 95.1524 37.2933 94.8075 36.84 94.6484C36.3733 94.476 35.5067 94.277 34.9067 94.2107C34.2 94.1311 33.4533 94.1179 32.8667 94.1974C32.36 94.2637 31.7333 94.3566 31.5067 94.3964C31.0667 94.476 31.0667 94.476 30.9333 93.773C30.8667 93.4016 30.7467 92.7252 30.6667 92.2875C30.5867 91.8499 30.4133 90.497 30.2667 89.2635C30.08 87.7117 30 86.213 30 84.2235C30 82.3004 30.08 80.6955 30.2667 79.157C30.4133 77.9103 30.6533 76.2391 30.8 75.4433C30.9467 74.6343 31.08 73.9711 31.1067 73.9446C31.12 73.9181 31.4667 73.9711 31.8667 74.064C32.2667 74.1568 33.1733 74.2231 33.8667 74.2231C34.6 74.2231 35.4933 74.1303 36 74.0109C36.48 73.8783 37.3733 73.5334 38 73.2284C38.9067 72.7907 39.36 72.4591 40.2667 71.544C41.1067 70.6951 41.5333 70.1513 41.9067 69.4086C42.1733 68.8648 42.52 67.9364 42.6667 67.3528C42.8267 66.7029 42.9333 65.8541 42.9333 65.1644C42.9333 64.4614 42.84 63.6391 42.6667 62.976C42.5067 62.3924 42.1467 61.464 41.8667 60.9202C41.5867 60.3764 40.9867 59.5408 40.5467 59.0633C40.12 58.5858 39.4 57.9625 38.9467 57.6707C38.5067 57.3789 38.1333 57.1136 38.1333 57.0738C38.1333 57.0341 38.6133 56.3178 39.2133 55.4823C39.8133 54.6467 40.8133 53.3336 41.44 52.5644C42.0667 51.7951 43.5733 50.1903 44.7867 48.9833C46 47.7764 47.72 46.2113 48.6 45.5084C49.48 44.8054 50.7733 43.8505 51.4667 43.373C52.16 42.8955 52.76 42.5507 52.8 42.5905ZM45.7067 102.102C46.12 102.832 46.7733 103.933 47.1733 104.556C47.5733 105.179 48.2667 106.161 48.7067 106.744C49.1467 107.328 50 108.376 50.6133 109.065C51.2133 109.755 52.1733 110.776 52.7467 111.32C53.3333 111.877 54.3467 112.766 55 113.31C55.6667 113.867 56.8 114.729 57.5333 115.233C58.2667 115.737 59.5867 116.572 60.4667 117.09C61.3467 117.607 62.8533 118.376 63.8 118.801C64.7467 119.225 66.4933 119.888 67.6667 120.286C68.84 120.671 70.4933 121.135 71.3333 121.321C72.1733 121.506 73.4667 121.745 74.2 121.851C74.9333 121.97 76.52 122.116 77.7333 122.196C79.3333 122.302 80.5467 122.302 82.2 122.196C83.4533 122.116 85.0533 121.97 85.7733 121.864C86.48 121.758 87.6533 121.546 88.3733 121.387C89.08 121.228 90.36 120.909 91.2 120.671C92.04 120.419 93.5733 119.888 94.6 119.477C95.6267 119.066 97.1333 118.389 97.9333 117.965C98.7333 117.541 99.9733 116.851 100.667 116.413C101.36 115.989 102.533 115.193 103.267 114.649C104 114.105 105.2 113.15 105.92 112.527C106.64 111.904 107.747 110.856 108.373 110.193C108.987 109.53 109.933 108.469 110.467 107.805C111 107.142 111.88 105.949 112.427 105.153C112.973 104.357 113.76 103.097 114.16 102.368C114.573 101.638 115.013 100.816 115.12 100.55C115.24 100.272 115.307 100.046 115.267 100.046C115.227 100.046 114.947 100.484 114.653 101.015C114.347 101.532 113.64 102.633 113.093 103.429C112.547 104.224 111.707 105.365 111.227 105.949C110.747 106.532 109.867 107.54 109.28 108.19C108.68 108.827 107.573 109.901 106.827 110.577C106.067 111.241 104.867 112.222 104.16 112.766C103.44 113.296 102.293 114.105 101.6 114.57C100.907 115.021 99.6667 115.75 98.8667 116.201C98.0667 116.639 96.7067 117.315 95.8667 117.686C95.0267 118.058 93.5467 118.628 92.6 118.96C91.6533 119.291 90.1733 119.729 89.3333 119.941C88.4933 120.153 87.1067 120.445 86.2667 120.591C85.4267 120.737 83.9467 120.923 83 121.016C81.92 121.108 80.36 121.148 78.8667 121.095C77.5467 121.055 75.6533 120.896 74.6667 120.75C73.68 120.591 72.1467 120.299 71.2667 120.087C70.3867 119.875 68.9467 119.464 68.0667 119.172C67.1867 118.88 65.8133 118.363 65 118.018C64.2 117.673 63.08 117.169 62.5333 116.891C61.9867 116.612 61 116.082 60.3333 115.697C59.68 115.312 58.5333 114.583 57.8 114.092C57.0667 113.601 55.84 112.686 55.0667 112.076C54.2933 111.466 53.0667 110.392 52.3467 109.715C51.6133 109.026 50.4533 107.805 49.76 107.01C49.0667 106.214 48.0667 104.954 47.5333 104.224C47 103.495 46.0667 102.089 45.4667 101.108C44.88 100.126 44.36 99.2905 44.32 99.2507C44.28 99.2109 44.4133 99.5425 44.6133 99.9802C44.8133 100.418 45.3067 101.373 45.7067 102.102Z" fill="black"/>
<path d="M65.7866 32.8418C65.8666 32.8683 65.9333 32.9479 65.9333 33.0142C65.9333 33.0806 65.8399 33.6774 65.7466 34.3273C65.6266 35.1231 65.5866 36.1443 65.6399 37.3778C65.6666 38.3991 65.8133 39.7121 65.9333 40.2957C66.0533 40.8793 66.3066 41.8608 66.4933 42.4841C66.6666 43.1075 67.0266 44.142 67.2933 44.8052C67.5466 45.4551 68.1199 46.7151 68.5466 47.5905C68.9733 48.4658 69.7466 49.9248 70.2799 50.8399C70.7999 51.7551 72.5066 54.5271 74.0666 57.0073C75.6266 59.4875 77.2933 62.2065 77.7599 63.042C78.2399 63.8776 78.9599 65.2172 79.3599 66.0262C79.7733 66.822 80.3866 68.2014 80.7333 69.0768C81.0799 69.9521 81.5333 71.358 81.7466 72.1936C81.9733 73.0292 82.2133 74.4351 82.2933 75.3105C82.4133 76.5174 82.4133 77.2734 82.2933 78.4273C82.1999 79.2629 81.9866 80.5229 81.7999 81.2126C81.5866 81.9951 81.1199 83.1755 80.5333 84.3294C79.9333 85.5496 79.2266 86.6902 78.5066 87.6452C77.8933 88.441 76.6799 89.8203 75.7999 90.709C74.9199 91.5843 73.1466 93.2422 71.8666 94.3696C70.5866 95.497 68.9599 97.0222 68.2533 97.7384C67.5599 98.4547 66.6666 99.5024 66.2799 100.046C65.8933 100.59 65.3466 101.505 65.0533 102.062C64.7733 102.633 64.3866 103.587 64.2133 104.184C64.0399 104.794 63.8266 105.882 63.7466 106.611C63.6533 107.5 63.6533 108.429 63.7333 109.397C63.7999 110.193 63.8133 110.895 63.7599 110.949C63.7066 111.015 63.1333 110.723 62.4666 110.312C61.8133 109.901 60.6933 109.145 59.9999 108.614C59.3066 108.097 58.0533 107.009 57.2133 106.214C56.3866 105.418 55.2133 104.184 54.6399 103.495C54.0533 102.805 53.0933 101.518 52.5066 100.643C51.9199 99.7677 50.9999 98.1496 50.4666 97.062C49.9199 95.9612 49.2666 94.4757 48.9999 93.7462C48.7199 93.0168 48.3066 91.6374 48.0666 90.6957C47.8266 89.754 47.5066 88.2818 47.3733 87.4462C47.1733 86.1995 47.1333 85.1915 47.1466 82.0083C47.1466 78.6793 47.1866 77.8172 47.4399 76.2389C47.5999 75.2176 47.9066 73.6658 48.1199 72.7905C48.3333 71.9151 48.7066 70.6551 48.9333 70.0052C49.1733 69.3553 49.6266 68.2147 49.9599 67.4852C50.2799 66.7557 50.8799 65.562 51.2799 64.8326C51.6933 64.1031 52.6266 62.538 53.3733 61.3443C54.1199 60.1639 54.7999 59.209 54.8666 59.2488C54.9466 59.2753 54.9866 59.3416 54.9733 59.4079C54.9599 59.4742 54.6666 60.3098 54.3333 61.2515C53.9999 62.1932 53.5866 63.6256 53.3866 64.4347C53.1466 65.4692 53.0266 66.4374 52.9733 67.7505C52.9333 68.8115 52.9599 69.9256 53.0399 70.3368C53.1199 70.7347 53.3199 71.4243 53.4799 71.862C53.6533 72.2997 54.0133 72.9363 54.2933 73.2812C54.6533 73.7321 55.0666 74.0505 55.6933 74.3422C56.4933 74.7269 56.7066 74.7799 57.6666 74.7667C58.3866 74.7534 58.9866 74.6473 59.5333 74.4616C59.9733 74.3025 60.6933 73.9443 61.1333 73.6791C61.5733 73.4138 62.3333 72.8037 62.8133 72.3262C63.3066 71.8488 64.0533 70.9203 64.4799 70.2705C64.9066 69.6206 65.4666 68.5728 65.7066 67.9494C65.9599 67.326 66.3066 66.2782 66.4666 65.6283C66.6399 64.9785 66.8533 63.7185 66.9333 62.8431C67.0266 61.9279 67.0533 60.6945 66.9999 59.9252C66.9599 59.1957 66.8266 58.002 66.7199 57.2726C66.6133 56.5431 66.3333 55.2035 66.0799 54.2883C65.8399 53.3732 65.2933 51.5296 64.8799 50.1768C64.4666 48.8239 63.9733 47.0334 63.7866 46.1978C63.5333 45.0174 63.4399 44.1553 63.3733 42.3515C63.3199 40.5742 63.3466 39.7519 63.5066 38.8368C63.6266 38.1869 63.9066 37.0728 64.1333 36.3831C64.3599 35.6934 64.7999 34.5926 65.0933 33.9559C65.3999 33.3193 65.7066 32.8153 65.7866 32.8418Z" fill="#F17300"/>
<path d="M92.4932 17.0852C92.5199 17.1249 92.4132 17.3106 92.2799 17.5228C92.1332 17.7218 91.7466 18.4513 91.4266 19.1409C91.0932 19.8306 90.6932 20.8784 90.5599 21.462C90.4132 22.0456 90.2532 22.9475 90.1999 23.4515C90.1599 23.9555 90.1732 24.8839 90.2532 25.5073C90.3332 26.1306 90.5732 27.2049 90.7999 27.8946C91.0266 28.5843 91.5466 29.8443 91.9732 30.6799C92.3999 31.5155 93.3866 33.2795 94.1732 34.5925C94.9466 35.9056 95.8799 37.6033 96.2532 38.3725C96.6132 39.1418 97.0399 40.1233 97.1732 40.5609C97.3199 40.9986 97.5332 41.8209 97.6532 42.3913C97.7732 42.9483 97.8666 43.9828 97.8666 44.6725C97.8666 45.3622 97.8266 45.9325 97.7732 45.9325C97.7066 45.9325 95.6799 43.9828 93.2532 41.5955C90.4532 38.85 88.4799 36.7809 87.8666 35.9852C87.3332 35.2955 86.6666 34.3405 86.3866 33.8631C86.1066 33.3856 85.7199 32.55 85.5199 32.0062C85.2799 31.3165 85.1466 30.6268 85.1066 29.7515C85.0399 28.7302 85.0932 28.2793 85.3199 27.3641C85.4799 26.7407 85.8399 25.7593 86.1199 25.1757C86.4132 24.5921 86.9332 23.6637 87.2932 23.1199C87.6532 22.5761 88.4266 21.5283 89.0132 20.7988C89.5999 20.0694 90.6132 18.9155 91.2666 18.2391C91.9066 17.5626 92.4666 17.0454 92.4932 17.0852Z" fill="black"/>
<path d="M81.4135 8C81.5202 8 81.6002 8.06632 81.6002 8.13263C81.6002 8.19895 81.3469 8.756 81.0535 9.36611C80.7469 9.96295 80.1869 11.2229 79.8002 12.1779C79.4135 13.1328 78.9202 14.5653 78.6935 15.3611C78.4669 16.1568 78.1735 17.3505 78.0402 18.0137C77.8669 18.9023 77.8135 19.8705 77.8002 21.7937C77.8002 23.7832 77.8535 24.6585 78.0535 25.5737C78.1869 26.2236 78.5069 27.4173 78.7735 28.2263C79.0269 29.0354 79.6402 30.4545 80.1202 31.4095C80.6135 32.3644 81.4669 33.8234 82.0269 34.6589C82.5869 35.4945 83.5602 36.8076 84.1735 37.5768C84.8002 38.3461 85.8535 39.5928 86.5335 40.3621C87.2135 41.1314 88.1602 42.1659 88.6535 42.6699C89.1335 43.1739 91.1469 45.1236 93.1202 46.9804C95.0935 48.8505 97.5469 51.2777 98.5735 52.3653C99.6002 53.4661 100.92 54.9251 101.494 55.6147C102.08 56.3044 103.08 57.5644 103.72 58.4C104.36 59.2356 105.307 60.5486 105.827 61.3179C106.334 62.0872 107.067 63.2543 107.467 63.9042C107.854 64.5541 108.52 65.8008 108.947 66.6629C109.387 67.5118 109.96 68.7718 110.254 69.435C110.534 70.1114 110.987 71.3581 111.254 72.1937C111.534 73.0293 111.894 74.3158 112.08 75.0453C112.254 75.7747 112.507 77.0347 112.627 77.8305C112.8 78.9314 112.867 80.0985 112.867 82.6053C112.867 85.1651 112.814 86.2659 112.614 87.4463C112.48 88.2819 112.174 89.7541 111.934 90.6958C111.694 91.6375 111.267 93.0434 110.987 93.8126C110.707 94.5819 110.04 96.0674 109.52 97.1284C108.987 98.1895 108.094 99.7413 107.534 100.577C106.974 101.412 106.014 102.699 105.4 103.428C104.8 104.158 103.734 105.299 103.054 105.962C102.36 106.612 101.347 107.513 100.8 107.951C100.254 108.389 99.3202 109.092 98.7335 109.49C98.1469 109.901 97.0002 110.604 96.2002 111.068C95.3869 111.519 94.1602 112.156 93.4669 112.461C92.7735 112.766 91.5735 113.23 90.8002 113.495C90.0269 113.774 88.8269 114.132 88.1335 114.304C87.4402 114.477 86.1469 114.755 85.2669 114.914C84.0935 115.113 82.8935 115.219 80.8002 115.259C78.6002 115.312 77.5202 115.272 76.1335 115.113C75.1469 114.994 73.6669 114.742 72.8669 114.556C72.0535 114.384 71.0402 114.119 69.8002 113.734L69.5469 112.898C69.3469 112.235 69.2935 111.612 69.2802 109.994C69.2669 108.216 69.3069 107.792 69.5735 106.877C69.7469 106.293 70.0935 105.365 70.3469 104.821C70.6002 104.277 71.2002 103.256 71.6669 102.566C72.1335 101.877 72.9069 100.829 73.4002 100.245C73.8802 99.6617 75.4669 97.9242 76.9202 96.399C78.3735 94.8737 79.9335 93.2025 80.3869 92.6853C80.8535 92.168 81.6535 91.1865 82.1869 90.4968C82.7202 89.8072 83.4802 88.6665 83.8935 87.9768C84.3069 87.2872 84.8535 86.2128 85.1069 85.5895C85.3735 84.9661 85.7335 83.9316 85.9335 83.2684C86.1202 82.6053 86.4002 81.3983 86.5469 80.576C86.7202 79.568 86.8002 78.4804 86.8002 77.1674C86.8002 76.0931 86.7069 74.5811 86.5869 73.7455C86.4669 72.9364 86.1602 71.5173 85.9069 70.6021C85.6669 69.687 85.1869 68.2545 84.8535 67.419C84.5202 66.5834 83.7735 64.9653 83.2135 63.8379C82.6402 62.7105 81.6269 60.8537 80.9335 59.7263C80.2535 58.5989 78.8669 56.4503 77.8535 54.9516C76.8535 53.4528 75.2935 51.1848 74.4002 49.9116C73.5069 48.6383 72.4535 46.9672 72.0669 46.1979C71.6802 45.4286 71.1869 44.2615 70.9602 43.6116C70.7335 42.9617 70.4269 41.8476 70.2802 41.1579C70.1335 40.4682 69.9469 39.3541 69.8669 38.7042C69.8002 38.0543 69.7335 36.7413 69.7335 35.7863C69.7335 34.8314 69.8269 33.3194 69.9335 32.4042C70.0402 31.4891 70.2802 30.0036 70.4802 29.0884C70.6669 28.1733 71.0269 26.7408 71.2802 25.9053C71.5202 25.0697 71.9869 23.6903 72.3069 22.8547C72.6269 22.0192 73.0935 20.8785 73.3335 20.3347C73.5735 19.7909 74.0669 18.7432 74.4269 18.0137C74.8002 17.2842 75.6402 15.7722 76.3069 14.6448C76.9869 13.5307 78.0402 11.9392 78.6535 11.1301C79.2669 10.3211 80.0935 9.28653 80.4935 8.82232C80.9069 8.37137 81.3202 8 81.4135 8Z" fill="#E03597"/>
</g>
<defs>
<clipPath id="clip0_4_10">
<rect width="160" height="160" fill="white"/>
</clipPath>
</defs>
</svg>
